<svg width="487.5" height="71.002" viewBox="0 0 487.5 71.002" xmlns="http://www.w3.org/2000/svg"><g id="svgGroup" stroke-linecap="round" fill-rule="evenodd" font-size="9pt" stroke="#141b5f" stroke-width="0.25mm" fill="#141b5f" style="stroke:#141b5f;stroke-width:0.25mm;fill:#141b5f"><path d="M 0 70.001 L 0 0.001 L 42 0.001 A 36.756 36.756 0 0 1 47.451 0.376 Q 50.245 0.796 52.469 1.686 A 14.019 14.019 0 0 1 57.25 4.751 Q 60.713 8.213 61.651 14.732 A 37.072 37.072 0 0 1 62 20.001 L 62 30.001 A 36.756 36.756 0 0 1 61.624 35.452 Q 61.204 38.245 60.314 40.47 A 14.019 14.019 0 0 1 57.25 45.251 Q 53.787 48.713 47.269 49.652 A 37.072 37.072 0 0 1 42 50.001 L 18 50.001 L 18 70.001 L 0 70.001 Z M 44 30.001 L 44 20.001 A 8.638 8.638 0 0 0 43.703 17.626 Q 42.94 14.964 40.222 14.256 A 8.84 8.84 0 0 0 38 14.001 L 18 14.001 L 18 36.001 L 38 36.001 A 8.638 8.638 0 0 0 40.374 35.703 Q 43.037 34.94 43.744 32.223 A 8.84 8.84 0 0 0 44 30.001 Z" id="0" vector-effect="non-scaling-stroke"/><path d="M 97 57.001 L 97 70.001 A 91.457 91.457 0 0 1 88.29 70.893 A 77.234 77.234 0 0 1 84.25 71.001 A 14.686 14.686 0 0 1 78.608 69.943 A 13.734 13.734 0 0 1 74.1 66.901 A 13.744 13.744 0 0 1 70.264 59.28 A 19.527 19.527 0 0 1 70 56.001 L 70 0.001 L 87.5 0.001 L 87.5 53.501 A 3.696 3.696 0 0 0 87.727 54.817 A 3.322 3.322 0 0 0 88.5 56.001 A 3.374 3.374 0 0 0 90.904 57 A 4.428 4.428 0 0 0 91 57.001 L 97 57.001 Z" id="1" vector-effect="non-scaling-stroke"/><path d="M 106.5 30.501 L 106.5 18.001 A 365.855 365.855 0 0 1 122.865 16.565 Q 130.587 16.071 137.532 16.009 A 221.408 221.408 0 0 1 139.5 16.001 Q 146.3 16.001 150.4 20.101 A 13.744 13.744 0 0 1 154.236 27.722 A 19.527 19.527 0 0 1 154.5 31.001 L 154.5 70.001 L 139 70.001 L 138 65.001 A 37.139 37.139 0 0 1 131.115 68.604 A 32.883 32.883 0 0 1 128.35 69.551 A 45.82 45.82 0 0 1 125.13 70.376 Q 123.59 70.708 122.238 70.863 A 19.642 19.642 0 0 1 120 71.001 L 116.5 71.001 Q 109.7 71.001 105.6 66.901 A 13.744 13.744 0 0 1 101.764 59.28 A 19.527 19.527 0 0 1 101.5 56.001 L 101.5 51.501 Q 101.5 44.701 105.6 40.601 A 13.744 13.744 0 0 1 113.221 36.765 A 19.527 19.527 0 0 1 116.5 36.501 L 137 36.501 L 137 32.501 A 3.696 3.696 0 0 0 136.773 31.184 A 3.322 3.322 0 0 0 136 30.001 A 3.374 3.374 0 0 0 133.596 29.002 A 4.428 4.428 0 0 0 133.5 29.001 Q 127 29.001 119.15 29.601 Q 112.128 30.137 107.546 30.434 A 467.755 467.755 0 0 1 106.5 30.501 Z M 122.5 57.001 L 125 57.001 A 33.783 33.783 0 0 0 130.091 56.59 Q 132.525 56.218 135.194 55.51 A 60.966 60.966 0 0 0 137 55.001 L 137 49.001 L 122.5 49.001 A 3.696 3.696 0 0 0 121.184 49.228 A 3.322 3.322 0 0 0 120 50.001 A 3.374 3.374 0 0 0 119.001 52.404 A 4.428 4.428 0 0 0 119 52.501 L 119 53.501 A 3.696 3.696 0 0 0 119.227 54.817 A 3.322 3.322 0 0 0 120 56.001 A 3.374 3.374 0 0 0 122.404 57 A 4.428 4.428 0 0 0 122.5 57.001 Z" id="2" vector-effect="non-scaling-stroke"/><path d="M 210.5 56.001 L 210.5 69.001 A 394.529 394.529 0 0 1 194.98 70.368 Q 187.903 70.842 181.609 70.961 A 218.062 218.062 0 0 1 177.5 71.001 Q 170.7 71.001 166.6 66.901 A 13.744 13.744 0 0 1 162.764 59.28 A 19.527 19.527 0 0 1 162.5 56.001 L 162.5 33.001 A 21.378 21.378 0 0 1 163.002 28.228 Q 163.837 24.58 166.061 21.993 A 13.454 13.454 0 0 1 166.75 21.251 Q 171 17.001 178.5 17.001 L 210.5 17.001 L 210.5 30.501 L 184 30.501 Q 180.826 30.501 180.171 33.019 A 5.893 5.893 0 0 0 180 34.501 L 180 54.001 A 3.696 3.696 0 0 0 180.227 55.317 A 3.322 3.322 0 0 0 181 56.501 A 3.374 3.374 0 0 0 183.404 57.5 A 4.428 4.428 0 0 0 183.5 57.501 Q 190.391 57.501 202.557 56.621 A 726.752 726.752 0 0 0 210.5 56.001 Z" id="3" vector-effect="non-scaling-stroke"/><path d="M 267.5 56.501 L 267.5 69.001 A 400.66 400.66 0 0 1 249.134 70.499 A 291.685 291.685 0 0 1 232.5 71.001 Q 225.7 71.001 221.6 66.901 A 13.744 13.744 0 0 1 217.764 59.28 A 19.527 19.527 0 0 1 217.5 56.001 L 217.5 32.001 A 21.378 21.378 0 0 1 218.002 27.228 Q 218.837 23.58 221.061 20.993 A 13.454 13.454 0 0 1 221.75 20.251 Q 226 16.001 233.5 16.001 L 253.5 16.001 A 21.378 21.378 0 0 1 258.272 16.503 Q 261.921 17.338 264.508 19.562 A 13.454 13.454 0 0 1 265.25 20.251 Q 269.5 24.501 269.5 32.001 L 269.5 50.501 L 235 50.501 L 235 54.501 A 3.696 3.696 0 0 0 235.227 55.817 A 3.322 3.322 0 0 0 236 57.001 A 3.374 3.374 0 0 0 238.404 58 A 4.428 4.428 0 0 0 238.5 58.001 Q 246.08 58.001 259.052 57.121 A 793.998 793.998 0 0 0 267.5 56.501 Z M 248 28.501 L 239 28.501 Q 235.826 28.501 235.171 31.019 A 5.893 5.893 0 0 0 235 32.501 L 235 38.001 L 252 38.001 L 252 32.501 Q 252 29.327 249.481 28.671 A 5.893 5.893 0 0 0 248 28.501 Z" id="4" vector-effect="non-scaling-stroke"/><path d="M 311.5 30.501 L 308 30.501 A 33.783 33.783 0 0 0 302.909 30.911 Q 300.475 31.283 297.806 31.991 A 60.966 60.966 0 0 0 296 32.501 L 296 70.001 L 278.5 70.001 L 278.5 17.001 L 294 17.001 L 295 22.001 A 37.139 37.139 0 0 1 301.885 18.397 A 32.883 32.883 0 0 1 304.65 17.451 A 45.82 45.82 0 0 1 307.87 16.625 Q 309.41 16.293 310.762 16.138 A 19.642 19.642 0 0 1 313 16.001 L 317.5 16.001 Q 324.3 16.001 328.4 20.101 A 13.744 13.744 0 0 1 332.236 27.722 A 19.527 19.527 0 0 1 332.5 31.001 L 332.5 70.001 L 315 70.001 L 315 34.001 A 3.696 3.696 0 0 0 314.773 32.684 A 3.322 3.322 0 0 0 314 31.501 A 3.374 3.374 0 0 0 311.596 30.502 A 4.428 4.428 0 0 0 311.5 30.501 Z" id="5" vector-effect="non-scaling-stroke" fill="#FFBE05" stroke="#FFBE05"/><path d="M 395.5 32.001 L 395.5 55.001 A 21.378 21.378 0 0 1 394.998 59.773 Q 394.163 63.422 391.939 66.008 A 13.454 13.454 0 0 1 391.25 66.751 Q 387 71.001 379.5 71.001 L 356.5 71.001 A 21.378 21.378 0 0 1 351.728 70.498 Q 348.079 69.663 345.492 67.439 A 13.454 13.454 0 0 1 344.75 66.751 Q 340.5 62.501 340.5 55.001 L 340.5 32.001 A 21.378 21.378 0 0 1 341.002 27.228 Q 341.837 23.58 344.061 20.993 A 13.454 13.454 0 0 1 344.75 20.251 Q 349 16.001 356.5 16.001 L 379.5 16.001 A 21.378 21.378 0 0 1 384.272 16.503 Q 387.921 17.338 390.508 19.562 A 13.454 13.454 0 0 1 391.25 20.251 Q 395.5 24.501 395.5 32.001 Z M 378 53.501 L 378 33.501 Q 378 30.327 375.481 29.671 A 5.893 5.893 0 0 0 374 29.501 L 362 29.501 Q 358.826 29.501 358.171 32.019 A 5.893 5.893 0 0 0 358 33.501 L 358 53.501 Q 358 56.675 360.519 57.33 A 5.893 5.893 0 0 0 362 57.501 L 374 57.501 Q 377.174 57.501 377.829 54.982 A 5.893 5.893 0 0 0 378 53.501 Z" id="6" vector-effect="non-scaling-stroke" fill="#FFBE05" stroke="#FFBE05"/><path d="M 450.5 17.001 L 459.5 49.001 L 468.5 17.001 L 487.5 17.001 L 471 70.001 L 452.5 70.001 L 442.5 38.001 L 432.5 70.001 L 414 70.001 L 397.5 17.001 L 416.5 17.001 L 425.5 49.001 L 434.5 17.001 L 450.5 17.001 Z" id="7" vector-effect="non-scaling-stroke" fill="#FFBE05" stroke="#FFBE05"/></g></svg>